<svg width="44" height="41" viewBox="0 0 44 41" fill="none" xmlns="http://www.w3.org/2000/svg">
<path d="M33.6 0C35.9187 0 37.8 1.88125 37.8 4.2C37.8 4.75125 37.6862 5.2675 37.5025 5.74875C39.2875 6.23 40.6 7.8575 40.6 9.8C40.6 10.5963 40.3725 11.34 39.9875 11.9788C41.93 12.3463 43.4 14.0525 43.4 16.1C43.4 17.8238 42.3587 19.3025 40.8712 19.95C42.3587 20.5975 43.4 22.0763 43.4 23.8C43.4 26.1188 41.5187 28 39.2 28H25.2L27.6675 34.16C27.8862 34.7113 28 35.3063 28 35.9013V36.2688C28 38.6575 26.0662 40.5913 23.6775 40.5913C22.0412 40.5913 20.545 39.6638 19.81 38.2025L14.8837 28.3763C14.2975 27.2125 14 25.9263 14 24.6225V8.295C14 6.5975 14.7787 4.9875 16.1 3.92L17.1675 3.07125C19.6525 1.085 22.7325 0 25.9087 0H33.6ZM7 5.6C8.54875 5.6 9.8 6.85125 9.8 8.4V30.8C9.8 32.3488 8.54875 33.6 7 33.6H2.8C1.25125 33.6 0 32.3488 0 30.8V8.4C0 6.85125 1.25125 5.6 2.8 5.6H7Z" fill="#C51F45"/>
</svg>
