<svg width="49" height="15" viewBox="0 0 49 15" fill="none" xmlns="http://www.w3.org/2000/svg">
<path d="M1.81991 14.0001C1.24658 14.0001 0.833246 13.9134 0.579912 13.7401C0.326579 13.5668 0.166579 13.3401 0.0999122 13.0601C0.0332455 12.7801 -8.78274e-05 12.4801 -8.78274e-05 12.1601V1.82009C-8.78274e-05 1.52675 0.0265788 1.24009 0.0799122 0.960087C0.133245 0.680087 0.286579 0.453421 0.539912 0.280087C0.793246 0.0934206 1.22658 0.00675384 1.83991 0.020087H8.39991C9.34658 0.020087 10.2399 0.200087 11.0799 0.560087C11.9199 0.920087 12.6599 1.42009 13.2999 2.06009C13.9532 2.68675 14.4599 3.42009 14.8199 4.26009C15.1932 5.10009 15.3799 5.99342 15.3799 6.94009C15.3799 7.91342 15.1932 8.82675 14.8199 9.68009C14.4599 10.5334 13.9532 11.2868 13.2999 11.9401C12.6599 12.5801 11.9132 13.0868 11.0599 13.4601C10.2199 13.8201 9.31325 14.0001 8.33991 14.0001H1.81991ZM3.65991 10.3401H8.39991C8.99991 10.3401 9.55325 10.1934 10.0599 9.90009C10.5666 9.59342 10.9666 9.19342 11.2599 8.70009C11.5666 8.19342 11.7199 7.63342 11.7199 7.02009C11.7199 6.40675 11.5666 5.84675 11.2599 5.34009C10.9666 4.83342 10.5666 4.43342 10.0599 4.14009C9.55325 3.83342 8.99325 3.68009 8.37991 3.68009H3.65991V10.3401ZM18.5187 14.0201C17.932 14.0201 17.512 13.9334 17.2587 13.7601C17.0053 13.5734 16.852 13.3401 16.7987 13.0601C16.7453 12.7801 16.7187 12.4868 16.7187 12.1801V1.80009C16.7187 1.50675 16.752 1.22675 16.8187 0.960087C16.8853 0.69342 17.052 0.47342 17.3187 0.300087C17.5853 0.126753 17.9987 0.0400867 18.5587 0.0400867C19.0387 0.0400867 19.392 0.11342 19.6187 0.260087C19.8587 0.406754 20.0987 0.593421 20.3387 0.820087L28.4587 8.16009V1.80009C28.4587 1.50675 28.4853 1.22675 28.5387 0.960087C28.6053 0.69342 28.7653 0.47342 29.0187 0.300087C29.272 0.126753 29.6987 0.0400867 30.2987 0.0400867C30.912 0.0400867 31.3387 0.13342 31.5787 0.320087C31.832 0.49342 31.9853 0.720087 32.0387 1.00009C32.092 1.28009 32.1187 1.57342 32.1187 1.88009V12.2001C32.1187 12.4934 32.092 12.7801 32.0387 13.0601C31.9987 13.3401 31.8587 13.5734 31.6187 13.7601C31.3787 13.9334 30.9653 14.0201 30.3787 14.0201C29.9787 14.0201 29.6453 13.9801 29.3787 13.9001C29.112 13.8201 28.872 13.6801 28.6587 13.4801L20.3587 6.02009V12.2001C20.3587 12.4934 20.332 12.7801 20.2787 13.0601C20.2253 13.3401 20.072 13.5734 19.8187 13.7601C19.5653 13.9334 19.132 14.0201 18.5187 14.0201ZM35.809 14.0201C35.209 14.0201 34.7823 13.9334 34.529 13.7601C34.2756 13.5734 34.1223 13.3401 34.069 13.0601C34.0156 12.7668 33.989 12.4734 33.989 12.1801V1.84009C33.989 1.14675 34.1223 0.673421 34.389 0.420088C34.669 0.153421 35.1623 0.020087 35.869 0.020087H46.309C46.6156 0.020087 46.9023 0.0467537 47.169 0.100087C47.449 0.153421 47.6756 0.306754 47.849 0.560087C48.0223 0.81342 48.109 1.24675 48.109 1.86009C48.109 2.46009 48.0156 2.88675 47.829 3.14009C47.6556 3.39342 47.429 3.54675 47.149 3.60009C46.869 3.65342 46.5756 3.68009 46.269 3.68009H37.649V5.46009H44.449C44.7556 5.46009 45.029 5.48675 45.269 5.54009C45.5223 5.58009 45.7156 5.71342 45.849 5.94009C45.9956 6.15342 46.069 6.52675 46.069 7.06009C46.069 7.56675 45.9956 7.92675 45.849 8.14009C45.7023 8.35342 45.5023 8.48009 45.249 8.52009C45.009 8.56009 44.7356 8.58009 44.429 8.58009H37.649V12.2001C37.649 12.4934 37.6223 12.7801 37.569 13.0601C37.5156 13.3401 37.3623 13.5734 37.109 13.7601C36.8556 13.9334 36.4223 14.0201 35.809 14.0201Z" fill="#456875"/>
</svg>
