<svg width="43" height="42" viewBox="0 0 43 42" fill="none" xmlns="http://www.w3.org/2000/svg">
<path d="M15.0237 3.39531C16.8438 0.350314 20.7113 -0.874687 23.9925 0.665313L24.6225 0.997814C27.6675 2.82656 28.8925 6.69407 27.3525 9.97532L26.1187 12.6003H35.7175L36.365 12.6353C39.5412 12.9591 42.0175 15.6453 42.0175 18.9003C42.0175 20.0553 41.7025 21.1228 41.16 22.0503C41.6938 22.9778 42.0088 24.0453 42.0175 25.2003C42.0175 26.8016 41.4137 28.2453 40.4425 29.3566C40.5563 29.8203 40.6175 30.3016 40.6175 30.8003C40.6175 32.9966 39.4888 34.9128 37.8 36.0416C37.6338 39.1478 35.2275 41.6591 32.165 41.9653L31.5175 42.0003H22.4088C20.8337 42.0003 19.2675 41.7028 17.8062 41.1341L17.185 40.8716L17.1237 40.8453L16.5462 40.5653L16.485 40.5391L15.4175 39.9703C14.3412 39.4016 13.3787 38.6841 12.5387 37.8616C12.18 40.2153 10.15 42.0091 7.7 42.0091H4.9C2.19625 42.0091 0 39.8128 0 37.1091L0.0175001 17.5003C0.0175001 14.7966 2.21375 12.6003 4.9175 12.6003H7.7175C8.6625 12.6003 9.54625 12.8716 10.2987 13.3441L14.6825 4.02531L14.735 3.92032L14.9712 3.48281L15.0237 3.40406V3.39531ZM4.9175 16.8003C4.5325 16.8003 4.2175 17.1153 4.2175 17.5003V37.1003C4.2175 37.4853 4.5325 37.8003 4.9175 37.8003H7.7175C8.1025 37.8003 8.4175 37.4853 8.4175 37.1003V17.5003C8.4175 17.1153 8.1025 16.8003 7.7175 16.8003H4.9175ZM22.2075 4.46281C20.9125 3.85906 19.3812 4.32281 18.6462 5.51282L18.4538 5.86282L13.4837 16.4416C13.1775 17.0978 13.0025 17.7978 12.9587 18.5153L12.95 18.8828V28.7616L12.9675 29.4528C13.1775 32.3141 14.84 34.8866 17.4038 36.2516L18.41 36.7853L18.9613 37.0566C20.0462 37.5466 21.2188 37.8003 22.4088 37.8003H31.5175L31.7275 37.7916C32.7863 37.6866 33.6175 36.7853 33.6175 35.7003L33.6 35.4728C33.5912 35.3941 33.5825 35.3241 33.565 35.2453C33.3288 34.1866 33.9412 33.1278 34.965 32.7953C35.8138 32.5241 36.4175 31.7278 36.4175 30.8003C36.4175 30.4241 36.3213 30.0828 36.1463 29.7678C35.595 28.7966 35.9012 27.5628 36.8462 26.9678C37.4412 26.5916 37.8263 25.9353 37.8263 25.2003C37.8263 24.5791 37.555 24.0191 37.1087 23.6253C36.6538 23.2228 36.3913 22.6541 36.3913 22.0503C36.3913 21.4466 36.6538 20.8778 37.1087 20.4753C37.555 20.0816 37.8263 19.5216 37.8263 18.9003L37.8175 18.6903C37.7212 17.7016 36.9338 16.9141 35.945 16.8178L35.735 16.8091H22.8288C22.1113 16.8091 21.4462 16.4416 21.0612 15.8378C20.6762 15.2341 20.6237 14.4641 20.93 13.8166L23.555 8.19032C24.1675 6.87782 23.6775 5.32907 22.4613 4.60281L22.2075 4.46281Z" fill="#00FF6F"/>
</svg>
