<svg width="25" height="24" viewBox="0 0 25 24" fill="none" xmlns="http://www.w3.org/2000/svg">
<path d="M19.6855 9.40171C19.6855 11.4764 18.9804 13.3929 17.7927 14.9478L23.7835 20.6747C24.375 21.2397 24.375 22.1573 23.7835 22.7223C23.192 23.2873 22.2314 23.2873 21.6399 22.7223L15.649 16.9954C14.0212 18.1299 12.0148 18.8034 9.84275 18.8034C4.40558 18.8034 0 14.5953 0 9.40171C0 4.20817 4.40558 0 9.84275 0C15.2799 0 19.6855 4.20817 19.6855 9.40171ZM9.84275 15.9106C13.6048 15.9106 16.657 12.9952 16.657 9.40171C16.657 5.80827 13.6048 2.89283 9.84275 2.89283C6.08074 2.89283 3.02854 5.80827 3.02854 9.40171C3.02854 12.9952 6.08074 15.9106 9.84275 15.9106Z" fill="#25221E"/>
</svg>
